<svg width="180" height="180" viewBox="0 0 180 180" fill="none" xmlns="http://www.w3.org/2000/svg">
<g opacity="0.65">
<path d="M27 153V89.9999C27 73.2912 33.6374 57.267 45.4522 45.4522C57.267 33.6374 73.2912 27 89.9999 27C106.708 27 122.733 33.6374 134.547 45.4522C146.362 57.267 153 73.2912 153 89.9999V153" stroke="white" stroke-width="1.2" stroke-linecap="square"/>
<path d="M54 153V90C54 80.4522 57.7928 71.2954 64.5441 64.5441C71.2954 57.7928 80.4522 53.9999 90 53.9999C99.5478 53.9999 108.705 57.7928 115.456 64.5441C122.207 71.2954 126 80.4522 126 90V153" stroke="white" stroke-width="1.2" stroke-linecap="square"/>
<path d="M80.9999 153V89.9999C80.9999 87.613 81.9481 85.3238 83.636 83.636C85.3238 81.9481 87.613 80.9999 89.9999 80.9999C92.3869 80.9999 94.6761 81.9481 96.3639 83.636C98.0517 85.3238 99 87.613 99 89.9999V153" stroke="white" stroke-width="1.2" stroke-linecap="square"/>
</g>
</svg>
