<svg width="180" height="180" viewBox="0 0 180 180" fill="none" xmlns="http://www.w3.org/2000/svg">
<g opacity="0.65">
<path d="M89.9999 109.8C115.847 109.8 136.8 88.8468 136.8 62.9999C136.8 37.153 115.847 16.2 89.9999 16.2C64.153 16.2 43.2 37.153 43.2 62.9999C43.2 88.8468 64.153 109.8 89.9999 109.8Z" stroke="white" stroke-width="1.2"/>
<path d="M66.5999 150.3C92.4468 150.3 113.4 129.347 113.4 103.5C113.4 77.653 92.4468 56.7 66.5999 56.7C40.753 56.7 19.8 77.653 19.8 103.5C19.8 129.347 40.753 150.3 66.5999 150.3Z" stroke="white" stroke-width="1.2"/>
<path d="M113.4 150.3C139.247 150.3 160.2 129.347 160.2 103.5C160.2 77.653 139.247 56.7 113.4 56.7C87.553 56.7 66.6 77.653 66.6 103.5C66.6 129.347 87.553 150.3 113.4 150.3Z" stroke="white" stroke-width="1.2"/>
</g>
</svg>
