<svg width="180" height="180" viewBox="0 0 180 180" fill="none" xmlns="http://www.w3.org/2000/svg">
<g opacity="0.65">
<path d="M90 111.6C127.776 111.6 158.4 101.929 158.4 90C158.4 78.0706 127.776 68.3999 90 68.3999C52.2237 68.3999 21.6 78.0706 21.6 90C21.6 101.929 52.2237 111.6 90 111.6Z" stroke="white" stroke-width="1.2"/>
<path d="M71.2938 100.8C90.1819 133.515 113.869 155.201 124.2 149.236C134.531 143.272 127.594 111.915 108.706 79.2C89.818 46.4848 66.1311 24.7992 55.7999 30.7639C45.4688 36.7286 52.4056 68.0848 71.2938 100.8Z" stroke="white" stroke-width="1.2"/>
<path d="M71.2935 79.2C52.4054 111.915 45.4685 143.272 55.7997 149.236C66.1308 155.201 89.8177 133.515 108.706 100.8C127.594 68.0848 134.531 36.7286 124.2 30.7639C113.869 24.7992 90.1817 46.4848 71.2935 79.2Z" stroke="white" stroke-width="1.2"/>
</g>
</svg>
