<svg width="180" height="180" viewBox="0 0 180 180" fill="none" xmlns="http://www.w3.org/2000/svg">
<g opacity="0.65">
<path d="M90 115.2C103.918 115.2 115.2 103.917 115.2 89.9999C115.2 76.0823 103.918 64.7999 90 64.7999C76.0824 64.7999 64.8 76.0823 64.8 89.9999C64.8 103.917 76.0824 115.2 90 115.2Z" stroke="white" stroke-width="1.2"/>
<path d="M89.9999 140.4C117.835 140.4 140.4 117.835 140.4 89.9999C140.4 62.1648 117.835 39.6 89.9999 39.6C62.1648 39.6 39.6 62.1648 39.6 89.9999C39.6 117.835 62.1648 140.4 89.9999 140.4Z" stroke="white" stroke-width="1.2"/>
<path d="M89.9999 165.6C131.753 165.6 165.6 131.752 165.6 89.9998C165.6 48.2472 131.753 14.4 89.9999 14.4C48.2472 14.4 14.4 48.2472 14.4 89.9998C14.4 131.752 48.2472 165.6 89.9999 165.6Z" stroke="white" stroke-width="1.2"/>
<path d="M89.9999 96.2999C93.4793 96.2999 96.2999 93.4793 96.2999 89.9999C96.2999 86.5205 93.4793 83.6999 89.9999 83.6999C86.5206 83.6999 83.7 86.5205 83.7 89.9999C83.7 93.4793 86.5206 96.2999 89.9999 96.2999Z" fill="white"/>
</g>
</svg>
